Coordinates
version=1
nRows=16
nColumns=40
inDegrees=yes

Units are S.I. units (second, meters, Newtons, ...)
Angles are in degrees.

endheader
time	pelvis_tilt	pelvis_list	pelvis_rotation	pelvis_tx	pelvis_ty	pelvis_tz	hip_flexion_r	hip_adduction_r	hip_rotation_r	knee_angle_r	knee_angle_r_beta	ankle_angle_r	subtalar_angle_r	mtp_angle_r	hip_flexion_l	hip_adduction_l	hip_rotation_l	knee_angle_l	knee_angle_l_beta	ankle_angle_l	subtalar_angle_l	mtp_angle_l	lumbar_extension	lumbar_bending	lumbar_rotation	arm_flex_r	arm_add_r	arm_rot_r	elbow_flex_r	pro_sup_r	wrist_flex_r	wrist_dev_r	arm_flex_l	arm_add_l	arm_rot_l	elbow_flex_l	pro_sup_l	wrist_flex_l	wrist_dev_l
     39.83000000	     -5.16718488	     -4.72311998	      6.00256186	      0.91249082	      0.92079188	      0.49907232	     -0.29664580	      3.46327658	    -14.76369534	     14.92989816	     14.92989816	     18.15187588	      0.65234098	     -1.64608900	     27.02892680	     -6.96890991	      4.38774789	     25.80482118	     25.80482118	      4.89577435	    -12.65936914	      1.02090923	     -7.83918593	      3.50138002	      3.90328815	     53.48362833	    -16.83117149	     -8.63514109	     66.99721895	     45.04321221	      0.00000000	      0.00000000	     -8.81626823	    -11.63163685	     18.41016817	     27.17847954	     43.03499976	      0.00000000	      0.00000000
     39.85428571	     -5.38093355	     -4.62115380	      5.61488048	      0.91378742	      0.92110619	      0.49379504	     -0.37966417	      2.67914742	    -15.67956940	     15.27965270	     15.27965270	     17.94038832	      2.58943831	     -2.69694440	     27.05439799	     -6.45231746	      4.62858277	     26.63154061	     26.63154061	      6.94942943	    -13.23002897	      5.29490988	     -7.77232295	      3.50023969	      3.61875621	     53.90426393	    -16.69149472	     -8.57219216	     65.60859039	     45.11488291	      0.00000000	      0.00000000	     -8.59386994	    -11.74667451	     18.41661337	     26.88546237	     43.18227128	      0.00000000	      0.00000000
     39.87857143	     -5.56950582	     -4.66654676	      5.14369910	      0.91517665	      0.92138361	      0.48884750	     -0.51999745	      2.26636901	    -15.50669743	     15.43111205	     15.43111205	     17.66715964	      2.95696493	     -2.84296564	     26.94331735	     -6.30958749	      4.26860610	     27.13283910	     27.13283910	      7.67839701	    -13.44469208	      5.69504802	     -7.68630256	      3.64234513	      3.80979827	     53.67270086	    -16.87512898	     -8.69824602	     65.12887823	     45.14376168	      0.00000000	      0.00000000	     -8.38953700	    -12.02263786	     18.32749626	     27.00211680	     43.25032506	      0.00000000	      0.00000000
     39.90285714	     -5.70675128	     -4.68131642	      4.66008140	      0.91654531	      0.92166522	      0.48385083	     -0.70700077	      1.78277422	    -15.51102367	     15.61357411	     15.61357411	     17.44739056	      3.67020369	     -3.09628677	     26.71798381	     -6.14816292	      3.86954562	     27.53732017	     27.53732017	      8.43496256	    -13.61594085	      6.10764432	     -7.67234107	      3.74746045	      3.85471316	     53.41180902	    -16.98316322	     -8.87566417	     64.48990688	     45.17934820	      0.00000000	      0.00000000	     -8.14908936	    -12.29585350	     18.28508541	     27.07039482	     43.31084632	      0.00000000	      0.00000000
     39.92714286	     -5.84677220	     -4.72651905	      4.18536886	      0.91791674	      0.92193459	      0.47885958	     -0.91214189	      1.39371113	    -15.21251546	     15.70418300	     15.70418300	     17.22510969	      3.93898673	     -3.08434298	     26.43459243	     -6.00445785	      3.51896625	     27.80426089	     27.80426089	      8.94530888	    -13.92511692	      6.00558365	     -7.64347841	      3.91492978	      3.72164808	     52.88165007	    -16.90491247	     -8.88029753	     64.21449294	     45.18752348	      0.00000000	      0.00000000	     -7.97130979	    -12.53563354	     18.25146192	     27.08816919	     43.32527090	      0.00000000	      0.00000000
     39.95142857	     -5.97374093	     -4.69733405	      3.68849862	      0.91923663	      0.92218483	      0.47376441	     -1.05722259	      0.81821823	    -15.27557529	     15.95932028	     15.95932028	     17.03917410	      4.78488134	     -3.35868066	     26.10942357	     -5.83597047	      2.94424191	     28.04972341	     28.04972341	      9.71945619	    -13.79997030	      6.26773419	     -7.58644266	      3.97486803	      3.88980139	     52.27112071	    -17.18320728	     -9.21886212	     62.98571299	     45.24559895	      0.00000000	      0.00000000	     -7.55986053	    -12.80552065	     18.22949497	     27.23333165	     43.37268687	      0.00000000	      0.00000000
     39.97571429	     -6.07926089	     -4.68919881	      3.19951993	      0.92053539	      0.92242622	      0.46868661	     -1.17979940	      0.28745155	    -15.16309884	     16.25738245	     16.25738245	     16.84329499	      5.35483182	     -3.59291066	     25.75348898	     -5.66941997	      2.43322127	     28.26593594	     28.26593594	     10.45818768	    -13.78031114	      6.53557763	     -7.52837142	      4.08931571	      3.83830565	     51.48699194	    -17.15814897	     -9.52350894	     61.74252060	     45.30156728	      0.00000000	      0.00000000	     -7.17045547	    -13.04652837	     18.25804043	     27.31715267	     43.41426134	      0.00000000	      0.00000000
     40.00000000	     -6.10930935	     -4.77115396	      2.74498947	      0.92180664	      0.92270228	      0.46357481	     -1.36381903	     -0.10206679	    -14.83644374	     16.53489098	     16.53489098	     16.62780430	      5.56976334	     -3.62691005	     25.32892209	     -5.54854234	      2.09567147	     28.45449317	     28.45449317	     10.97975456	    -14.01649148	      6.42551096	     -7.55621555	      4.34325470	      3.56366503	     50.33445562	    -16.96753143	     -9.52311776	     61.15590894	     45.31687645	      0.00000000	      0.00000000	     -6.79727033	    -13.23896129	     18.23117177	     27.40709715	     43.43009463	      0.00000000	      0.00000000
     40.02428571	     -6.21707819	     -4.67137650	      2.21806231	      0.92283905	      0.92282315	      0.45842577	     -1.13178797	     -0.84758543	    -14.62470793	     17.44599726	     17.44599726	     16.45870238	      5.94721773	     -4.12876883	     24.91635508	     -5.30417529	      1.44202712	     28.53263360	     28.53263360	     11.68791570	    -13.84324623	      6.56514111	     -7.48016398	      4.34148504	      3.77885442	     49.07830238	    -17.25875337	     -9.98762822	     59.13762411	     45.40287268	      0.00000000	      0.00000000	     -6.00937287	    -13.44904528	     18.24275366	     27.60745389	     43.47260630	      0.00000000	      0.00000000
     40.04857143	     -6.22822904	     -4.62628237	      1.73971366	      0.92384887	      0.92299746	      0.45323380	     -0.90299025	     -1.52187323	    -14.25576460	     18.49074252	     18.49074252	     16.20146529	      5.96873073	     -4.70637986	     24.44203681	     -5.06545045	      0.95963084	     28.65195142	     28.65195142	     12.32853991	    -13.87254093	      6.65284916	     -7.48489689	      4.46906137	      3.66199694	     47.54291670	    -17.12999063	    -10.30689987	     57.36242930	     45.47209691	      0.00000000	      0.00000000	     -5.24987111	    -13.62271260	     18.28207104	     27.71441569	     43.50506300	      0.00000000	      0.00000000
     40.07285714	     -6.21683290	     -4.64163603	      1.28761508	      0.92465853	      0.92303808	      0.44803086	     -0.52712245	     -2.13599021	    -13.72578409	     19.73651647	     19.73651647	     15.16781283	      5.45750513	     -7.43373381	     24.04556924	     -4.86196525	      0.55616003	     28.92716105	     28.92716105	     13.29133086	    -13.83898803	      7.52847022	     -7.46287975	      4.68813171	      3.18220156	     46.57832104	    -16.27658659	    -11.56809051	     53.58283830	     45.65328457	      0.00000000	      0.00000000	     -4.37277008	    -13.75129953	     18.77831880	     27.44111903	     43.59726924	      0.00000000	      0.00000000
     40.09714286	     -6.09719178	     -4.57711901	      0.81907457	      0.92536113	      0.92309076	      0.44280917	      0.12773029	     -2.93871512	    -13.13717226	     21.78627999	     21.78627999	     14.83055815	      4.95397963	     -8.21212674	     23.46361883	     -4.56912423	      0.11612576	     29.04678413	     29.04678413	     13.82319147	    -13.99853160	      7.38576977	     -7.66027058	      4.82660390	      3.08322680	     44.34277251	    -16.24921748	    -11.63441831	     52.13440139	     45.69612776	      0.00000000	      0.00000000	     -3.24344375	    -13.87463127	     18.70310610	     27.83524111	     43.64265222	      0.00000000	      0.00000000
     40.12142857	     -6.06465868	     -4.50897758	      0.32506930	      0.92566035	      0.92272149	      0.43764666	      1.35113120	     -3.80445976	    -12.29725257	     24.62935744	     24.62935744	     14.23413735	      3.94453926	     -9.62101040	     23.05973897	     -4.25047757	     -0.24878942	     29.25197805	     29.25197805	     14.35642066	    -14.25643123	      7.28392721	     -7.75513060	      4.99549282	      3.13334518	     41.96240606	    -16.25527767	    -11.82080954	     50.12826161	     45.76382968	      0.00000000	      0.00000000	     -1.81306456	    -13.91198943	     18.64961880	     28.20444513	     43.69300662	      0.00000000	      0.00000000
     40.14571429	     -5.95973800	     -4.54594547	     -0.12791511	      0.92581398	      0.92221722	      0.43265518	      2.55493659	     -4.37887090	    -11.04258167	     27.25493317	     27.25493317	     11.40592607	      1.05403207	    -16.41302593	     22.69236641	     -4.01389614	     -0.46859114	     29.64104880	     29.64104880	     15.15355815	    -14.57369676	      7.80301762	     -7.82975313	      5.31590876	      2.95692604	     40.39517963	    -15.59423175	    -13.39629136	     45.30122827	     45.99307534	      0.00000000	      0.00000000	      0.04769146	    -13.75979346	     19.08254168	     27.44042879	     43.79292688	      0.00000000	      0.00000000
     40.17000000	     -5.77718132	     -4.39665980	     -0.62445193	      0.92568762	      0.92143026	      0.42766999	      4.37234840	     -5.38257922	    -10.07769959	     31.38288105	     31.38288105	     10.51905933	     -0.36191325	    -17.51849124	     22.24835231	     -3.59376603	     -0.81667960	     30.00447406	     30.00447406	     15.71156139	    -14.95485759	      7.60843810	     -8.18021469	      5.43553814	      2.78964208	     37.53929122	    -15.29669905	    -13.45322415	     43.64663033	     46.03855809	      0.00000000	      0.00000000	      1.70194277	    -13.88782313	     18.92250245	     28.12952297	     43.85700073	      0.00000000	      0.00000000
     40.19428571	     -5.66220480	     -4.39698458	     -1.15052405	      0.92530327	      0.92026588	      0.42316664	      6.47153800	     -5.90650379	     -8.46456883	     35.55161649	     35.55161649	      8.06489761	     -3.98310209	    -21.28435066	     22.01285430	     -3.32626962	     -0.99914528	     30.57890633	     30.57890633	     16.46600380	    -15.50444847	      7.94446503	     -8.32659019	      5.71201733	      2.95839516	     35.02537922	    -15.02024167	    -14.54974273	     39.88913686	     46.20865892	      0.00000000	      0.00000000	      3.85263939	    -13.81664492	     18.84698692	     28.33204098	     43.99996330	      0.00000000	      0.00000000
